--------------------------------------------------------------------------------
                                                                                
           SSSSSSSSSSSSSSS       444444444                 AAA                  
         SS:::::::::::::::S     4::::::::4                A:::A                 
        S:::::SSSSSS::::::S    4:::::::::4               A:::::A                
        S:::::S     SSSSSSS   4::::44::::4              A:::::::A               
        S:::::S              4::::4 4::::4             A:::::::::A              
        S:::::S             4::::4  4::::4            A:::::A:::::A             
         S::::SSSS         4::::4   4::::4           A:::::A A:::::A            
          SS::::::SSSSS   4::::444444::::444        A:::::A   A:::::A           
            SSS::::::::SS 4::::::::::::::::4       A:::::A     A:::::A          
               SSSSSS::::S4444444444:::::444      A:::::AAAAAAAAA:::::A         
                    S:::::S         4::::4       A:::::::::::::::::::::A        
                    S:::::S         4::::4      A:::::AAAAAAAAAAAAA:::::A       
        SSSSSSS     S:::::S         4::::4     A:::::A             A:::::A      
        S::::::SSSSSS:::::S       44::::::44  A:::::A               A:::::A     
        S:::::::::::::::SS        4::::::::4 A:::::A                 A:::::A    
         SSSSSSSSSSSSSSS          4444444444AAAAAAA                   AAAAAAA   
                                                                                
                                                                                
---------------------------------------------------------------------------------

                           WWE.NXT.2011.04.05.WebRip.X264                        

---------------------------------------------------------------------------------

General
Complete name                   : WWE.NXT.2011.04.05.WebRip.X264.mp4
Format                          : MPEG-4
Format profile                  : Base Media
Codec ID                        : isom
File size                       : 277 MiB
Duration                        : 52mn 28s
Overall bit rate                : 737 Kbps
Writing application             : Lavf52.32.0

Video
ID                              : 1
Format                          : AVC
Format/Info                     : Advanced Video Codec
Format profile                  : Main@L3.0
Format settings, CABAC          : Yes
Format settings, ReFrames       : 2 frames
Codec ID                        : avc1
Codec ID/Info                   : Advanced Video Coding
Duration                        : 52mn 27s
Bit rate mode                   : Variable
Bit rate                        : 622 Kbps
Width                           : 704 pixels
Height                          : 384 pixels
Display aspect ratio            : 16:9
Frame rate mode                 : Variable
Frame rate                      : 15.000 fps
Original frame rate             : 29.970 fps
Minimum frame rate              : 1.033 fps
Maximum frame rate              : 29.970 fps
Color space                     : YUV
Chroma subsampling              : 4:2:0
Bit depth                       : 8 bits
Scan type                       : Progressive
Bits/(Pixel*Frame)              : 0.153
Stream size                     : 233 MiB (84%)

Audio
ID                              : 2
Format                          : AAC
Format/Info                     : Advanced Audio Codec
Format profile                  : LC
Codec ID                        : 40
Duration                        : 52mn 28s
Bit rate mode                   : Variable
Bit rate                        : 111 Kbps
Channel(s)                      : 2 channels
Channel positions               : Front: L R
Sampling rate                   : 48.0 KHz
Compression mode                : Lossy
Stream size                     : 41.8 MiB (15%)

Screenshot
 
http://leetleech.org/images/72021700380802335934.jpg 

---------------------------------------------------------------------------------